<?xml version="1.0" encoding="UTF-8"?>
<svg version="1.1" xmlns="http://www.w3.org/2000/svg" width="518" height="462">
<path d="M0 0 C170.94 0 341.88 0 518 0 C518 152.46 518 304.92 518 462 C347.06 462 176.12 462 0 462 C0 309.54 0 157.08 0 0 Z " fill="#FEFEFE" transform="translate(0,0)"/>
<path d="M0 0 C1.010625 0.70125 2.02125 1.4025 3.0625 2.125 C9.79437784 7.80847064 15.18266392 18.67086849 16.31518555 27.44067383 C16.47492557 30.13542968 16.51844694 32.80059839 16.5 35.5 C16.49500488 36.46470215 16.49000977 37.4294043 16.48486328 38.42333984 C16.27064637 47.33033108 14.41021597 54.81728602 11 63 C10.33097656 64.61455078 10.33097656 64.61455078 9.6484375 66.26171875 C6.19982981 73.78507798 1.50935132 79.86547406 -4 86 C-4.54140625 86.62390625 -5.0828125 87.2478125 -5.640625 87.890625 C-11.22094736 93.9218825 -18.2699605 98.36084656 -25 103 C-20.41704925 111.84983592 -14.7147893 119.85924291 -9 128 C-8.5157959 128.6919043 -8.0315918 129.38380859 -7.53271484 130.09667969 C-6.55804654 131.48869006 -5.58139125 132.87931121 -4.6027832 134.26855469 C-3.61044796 135.68303816 -2.62599277 137.10308003 -1.64916992 138.52832031 C0.93052499 142.2532873 3.58463701 145.71309382 6.6484375 149.0546875 C16.68297949 160.45366935 17.37623804 170.17804707 16.5546875 185.1171875 C16.38062862 187.41230594 16.19586256 189.70663937 16 192 C15.85933105 193.75812012 15.85933105 193.75812012 15.71582031 195.55175781 C15.4870533 198.36881294 15.2486608 201.18464309 15 204 C11.1305612 200.30486025 7.86935993 196.4206201 4.6875 192.125 C3.91164551 191.08134277 3.91164551 191.08134277 3.12011719 190.01660156 C-8.61450679 174.11428223 -19.59952755 157.68819698 -30.5625 141.25 C-31.07937378 140.47523315 -31.59624756 139.70046631 -32.12878418 138.90222168 C-37.84585368 130.32593515 -43.52197074 121.73168253 -49 113 C-50.15048828 113.16298584 -51.30097656 113.32597168 -52.48632812 113.49389648 C-56.75022353 114.02489312 -60.92674538 114.12919339 -65.21875 114.09765625 C-65.96209595 114.0962413 -66.70544189 114.09482635 -67.47131348 114.09336853 C-69.81425229 114.08783109 -72.15709073 114.07529091 -74.5 114.0625 C-76.10156111 114.05747689 -77.70312373 114.05291542 -79.3046875 114.04882812 C-83.20316288 114.03788227 -87.1015645 114.02066196 -91 114 C-90.93860797 127.72667842 -90.86137199 141.45316954 -90.76428509 155.17964458 C-90.71968643 161.55440172 -90.68040726 167.92909649 -90.65356445 174.30395508 C-90.62742661 180.46380762 -90.58695046 186.62341881 -90.53681374 192.78312111 C-90.52021571 195.12523188 -90.5086577 197.46738433 -90.50238609 199.80954552 C-91.39419129 218.51387346 -91.39419129 218.51387346 -85.7610321 235.80278015 C-80.00944656 241.30099081 -70.99202013 241.33215231 -63.5 241.625 C-62.67757812 241.66367187 -61.85515625 241.70234375 -61.0078125 241.7421875 C-59.0055299 241.83531692 -57.00279738 241.91868985 -55 242 C-54.67 243.65 -54.34 245.3 -54 247 C-87.33 247 -120.66 247 -155 247 C-154.67 245.35 -154.34 243.7 -154 242 C-153.06800781 241.97421875 -152.13601562 241.9484375 -151.17578125 241.921875 C-141.20516099 241.47828825 -131.21192728 240.67900749 -122.8125 234.75 C-118.82058332 228.69329883 -118.70674012 221.88081698 -118.73930359 214.8536377 C-118.73547804 213.96631596 -118.73165249 213.07899423 -118.72771102 212.16478395 C-118.71744183 209.20940403 -118.72136155 206.25422059 -118.7253418 203.29882812 C-118.72099202 201.17272259 -118.71580798 199.04661862 -118.70985413 196.92051697 C-118.69648308 191.15822291 -118.69588324 185.39599452 -118.69841743 179.63368797 C-118.69948819 174.81995444 -118.69460118 170.00623414 -118.689812 165.19250345 C-118.67872386 153.83617059 -118.67827585 142.47987081 -118.68432617 131.12353516 C-118.69036936 119.412825 -118.67804455 107.70223488 -118.6567561 95.9915452 C-118.6391393 85.93018786 -118.63313878 75.86886874 -118.63639385 65.80749655 C-118.63820635 59.80124235 -118.63557349 53.79507383 -118.62167931 47.78883362 C-118.60910401 42.14170158 -118.61104238 36.4947568 -118.62409019 30.84762764 C-118.62645597 28.77723184 -118.62372127 26.70682288 -118.61546707 24.63644218 C-118.60499839 21.80619869 -118.61310134 18.97658344 -118.6257782 16.1463623 C-118.61471677 14.92299817 -118.61471677 14.92299817 -118.60343188 13.67491961 C-118.65911597 7.74924082 -119.42464266 1.58655455 -123.796875 -2.8046875 C-124.44140625 -3.15789063 -125.0859375 -3.51109375 -125.75 -3.875 C-126.38421875 -4.24367188 -127.0184375 -4.61234375 -127.671875 -4.9921875 C-133.71345029 -7.60750029 -139.45096251 -8.35820154 -145.9375 -8.625 C-146.71673828 -8.66367187 -147.49597656 -8.70234375 -148.29882812 -8.7421875 C-150.19887379 -8.83544127 -152.09940278 -8.91875962 -154 -9 C-154.5625 -10.9375 -154.5625 -10.9375 -155 -13 C-154 -14 -154 -14 -151.35444641 -14.11352539 C-150.1731163 -14.10828857 -148.99178619 -14.10305176 -147.7746582 -14.09765625 C-146.79867676 -14.09546585 -146.79867676 -14.09546585 -145.80297852 -14.0932312 C-144.38319968 -14.08941423 -142.96342567 -14.08328626 -141.54366493 -14.07516479 C-139.28399839 -14.06240523 -137.02439067 -14.05588429 -134.76469421 -14.05102539 C-129.13936365 -14.03764266 -123.51408723 -14.01370612 -117.88879395 -13.98962402 C-113.15583274 -13.96970638 -108.42289408 -13.95412977 -103.68990135 -13.94406128 C-101.48677423 -13.93767675 -99.28374036 -13.92515816 -97.0806427 -13.91235352 C-89.36620798 -13.88460027 -81.72999175 -14.14801188 -74.03544617 -14.76400757 C-48.79536191 -16.7263118 -20.4327239 -17.06570619 0 0 Z " fill="#B9AD9D" transform="translate(187,33)"/>
<path d="M0 0 C0.95084473 -0.03609375 1.90168945 -0.0721875 2.88134766 -0.109375 C3.6414917 -0.15126953 4.40163574 -0.19316406 5.18481445 -0.23632812 C9.79696528 0.60142486 12.75889547 3.28818276 15.53295898 6.92944336 C16.45177856 8.48610718 16.45177856 8.48610718 17.38916016 10.07421875 C17.72591263 10.64301254 18.0626651 11.21180634 18.40962219 11.7978363 C21.98711958 17.93985889 25.08649203 24.30948629 28.11962891 30.734375 C28.72477589 32.00250997 29.33041927 33.27040817 29.93652344 34.53808594 C34.50231515 44.11083696 38.95509511 53.73611306 43.39575195 63.36743164 C47.95942633 73.23444591 52.69671787 83.01143028 57.46133423 92.78253174 C62.62213017 103.37165113 67.64078103 114.01494722 72.56884766 124.71484375 C76.58871093 133.41794674 80.73686624 142.05253416 84.93212891 150.671875 C90.33158037 161.76640174 95.60047013 172.91078868 100.77075195 184.11425781 C105.8838859 195.18513081 111.13749512 206.18683717 116.43212891 217.171875 C121.73640267 205.96548616 126.7809273 194.65764586 131.74462891 183.296875 C132.53432336 181.49300306 133.32420387 179.68921256 134.11425781 177.88549805 C135.33810875 175.09121687 136.56177745 172.29685694 137.784729 169.50218201 C140.48535492 163.33081252 143.19244922 157.16232497 145.90478516 150.99609375 C154.21215664 132.10683269 162.47369386 113.19832199 170.6920166 94.2701416 C177.52690035 78.52965993 184.39956345 62.80616236 191.31762695 47.10205078 C194.4450107 39.99976538 197.56361402 32.89561314 200.60009766 25.75390625 C201.28628174 24.1460022 201.28628174 24.1460022 201.98632812 22.50561523 C202.7831562 20.63197158 203.57338741 18.75549701 204.35449219 16.87524414 C207.39973052 9.72346096 210.32755268 3.85323923 217.43212891 0.171875 C220.08345032 -0.18888855 220.08345032 -0.18888855 222.95678711 -0.16870117 C224.57790154 -0.16836128 224.57790154 -0.16836128 226.23176575 -0.16801453 C227.3871434 -0.15253067 228.54252106 -0.13704681 229.73291016 -0.12109375 C231.52017769 -0.11472649 231.52017769 -0.11472649 233.34355164 -0.10823059 C237.14414187 -0.09145593 240.94419929 -0.05380459 244.74462891 -0.015625 C247.32339728 -0.00057666 249.90217398 0.01311149 252.48095703 0.02539062 C258.7981957 0.05844373 265.11512423 0.10863181 271.43212891 0.171875 C271.43212891 1.821875 271.43212891 3.471875 271.43212891 5.171875 C270.45373047 5.29304687 269.47533203 5.41421875 268.46728516 5.5390625 C251.44890228 7.14777732 251.44890228 7.14777732 237.05712891 15.484375 C232.7928131 22.53689729 233.13793527 29.7142911 233.21362305 37.72973633 C233.22019708 38.99447942 233.22677111 40.25922251 233.23354435 41.56229115 C233.35617576 57.59819382 234.09903376 73.61777408 234.81270099 89.63590217 C235.01018977 94.09812613 235.20056656 98.56065456 235.39186096 103.02314758 C235.71312469 110.49535016 236.03885683 117.96734597 236.36791992 125.43920898 C236.82953226 135.92102133 237.28263636 146.40318922 237.73420608 156.88543832 C238.08884371 165.10989714 238.44592627 173.33425009 238.80322266 181.55859375 C238.85965695 182.85887689 238.85965695 182.85887689 238.91723132 184.18542838 C239.13480407 189.19588458 239.35361675 194.20628394 239.57421112 199.21660805 C239.64026524 200.72002235 239.70598044 202.2234516 239.77129555 203.72689819 C240.11993327 211.74431792 240.49712024 219.76021758 240.91688538 227.77424622 C240.95326754 228.50992661 240.9896497 229.24560701 241.02713436 230.00358075 C241.34080646 239.12204413 241.34080646 239.12204413 244.68212891 247.421875 C245.27767578 248.38867188 245.27767578 248.38867188 245.88525391 249.375 C249.38700383 253.44268931 253.3135727 254.59065916 258.49462891 255.296875 C259.62384766 255.4515625 260.75306641 255.60625 261.91650391 255.765625 C267.0799251 256.36228701 272.24677359 256.81684166 277.43212891 257.171875 C277.43212891 258.821875 277.43212891 260.471875 277.43212891 262.171875 C245.42212891 262.171875 213.41212891 262.171875 180.43212891 262.171875 C180.43212891 260.521875 180.43212891 258.871875 180.43212891 257.171875 C181.25455078 257.12289063 182.07697266 257.07390625 182.92431641 257.0234375 C197.578449 256.58989752 197.578449 256.58989752 209.43212891 249.171875 C212.99959696 242.85355629 212.82749396 237.07214063 212.69775391 229.93359375 C212.68617249 228.739655 212.67459106 227.54571625 212.66265869 226.31559753 C212.51105776 214.77902229 211.98277716 203.26487595 211.37808228 191.74459839 C211.02009174 184.87498251 210.68913998 178.00412931 210.36572266 171.1328125 C210.32958548 170.3662351 210.2934483 169.59965771 210.25621605 168.80985069 C209.03018478 142.58565428 208.16680343 116.34560198 207.24462891 90.109375 C207.19936569 88.82393925 207.15410248 87.53850349 207.10746765 86.21411514 C206.5436076 70.20022205 205.98489768 54.18615471 205.43212891 38.171875 C205.12910858 38.9753537 204.82608826 39.7788324 204.5138855 40.60665894 C201.66710546 48.09085714 198.65188389 55.47061728 195.43994141 62.8046875 C194.97738449 63.86730301 194.51482758 64.92991852 194.03825378 66.0247345 C193.05480411 68.2833487 192.07015628 70.54144154 191.0843811 72.79904175 C188.48247628 78.75812907 185.88946826 84.72108754 183.29541016 90.68359375 C182.78304306 91.86065384 182.27067596 93.03771393 181.74278259 94.2504425 C177.70883422 103.52212544 173.71412955 112.8099563 169.74462891 122.109375 C163.20152303 137.42835984 156.56138804 152.70455707 149.9128418 167.97802734 C149.06118009 169.93456255 148.2095361 171.89110547 147.35791016 173.84765625 C146.93957413 174.80875305 146.5212381 175.76984985 146.09022522 176.7600708 C142.10765732 185.91247205 138.14209743 195.07217748 134.18212891 204.234375 C133.54216598 205.71436024 132.9021921 207.19434074 132.26220703 208.67431641 C129.19110411 215.77798769 126.12471498 222.88366006 123.06539917 229.99241638 C121.57051164 233.46519402 120.07386638 236.93721273 118.57702637 240.40914917 C117.85990561 242.07390533 117.14366696 243.73904178 116.42834473 245.40457153 C115.44344627 247.69771805 114.45568612 249.98961145 113.46728516 252.28125 C113.0263427 253.31109261 113.0263427 253.31109261 112.57649231 254.36174011 C110.54599063 259.05801327 110.54599063 259.05801327 109.43212891 260.171875 C107.18212891 260.734375 107.18212891 260.734375 104.43212891 260.171875 C98.97401774 252.65594813 95.40299886 243.93599582 91.49462891 235.546875 C90.73529719 233.92687988 89.97552517 232.30709107 89.21533203 230.6875 C86.94762379 225.85204883 84.68920285 221.01229683 82.43212891 216.171875 C81.80444299 214.82711062 81.17668085 213.48238182 80.54882812 212.13769531 C78.2768647 207.27121276 76.00591563 202.40425989 73.73852539 197.53564453 C68.49607809 186.28316621 63.19478606 175.05873377 57.88916016 163.8359375 C57.16649484 162.30729595 56.44383859 160.77865012 55.72119141 159.25 C55.36341614 158.49319946 55.00564087 157.73639893 54.63702393 156.95666504 C50.89215495 149.0330587 47.16157921 141.10274707 43.43212891 133.171875 C38.2979188 122.25466955 33.15433138 111.34194935 28.00076294 100.43386841 C25.17351521 94.44939147 22.34763022 88.46427082 19.52166748 82.47918701 C18.40101901 80.10599368 17.28009804 77.73292916 16.15917969 75.35986328 C14.29151181 71.40539009 12.42548383 67.45014655 10.56054688 63.49438477 C9.85680437 62.00227656 9.15255024 60.51040954 8.44775391 59.01879883 C7.47372685 56.95718627 6.50153664 54.89471717 5.52978516 52.83203125 C4.97814697 51.66293213 4.42650879 50.49383301 3.8581543 49.28930664 C2.63140006 46.60750131 1.51543748 43.91341967 0.43212891 41.171875 C-1.20629656 115.34725356 -1.20629656 115.34725356 -2.484375 189.52929688 C-2.54809616 194.02791517 -2.63148542 198.52587593 -2.72155762 203.02403259 C-2.77909189 206.11316393 -2.8191789 209.20230425 -2.85296631 212.29177856 C-2.87855904 214.2226617 -2.92388048 216.15325524 -2.97070312 218.08374023 C-3.03997611 228.47837289 -0.90827715 238.6695521 3.43212891 248.171875 C5.16355744 249.33109628 5.16355744 249.33109628 7.43212891 250.171875 C9.04087891 251.161875 9.04087891 251.161875 10.68212891 252.171875 C17.44027159 256.03162103 24.81667867 256.57886863 32.43212891 257.171875 C32.43212891 258.821875 32.43212891 260.471875 32.43212891 262.171875 C5.75329279 262.35728336 -20.89771793 261.81771628 -47.56787109 261.171875 C-47.56787109 259.521875 -47.56787109 257.871875 -47.56787109 256.171875 C-46.11767578 256.05972656 -46.11767578 256.05972656 -44.63818359 255.9453125 C-36.29092922 255.10232245 -28.95808903 254.15499411 -22.56787109 248.171875 C-13.12356602 234.99013166 -14.39930341 216.82920285 -14.06787109 201.39453125 C-14.0274495 199.64289625 -13.98670117 197.89126876 -13.94564819 196.13964844 C-13.83727109 191.47084865 -13.73376047 186.80195384 -13.63158417 182.13301468 C-13.54610802 178.2442596 -13.45840847 174.35555586 -13.37075615 170.46684933 C-13.17568163 161.81000147 -12.98419923 153.15308079 -12.79541016 144.49609375 C-12.63670948 137.22390508 -12.46997659 129.95198137 -12.29518127 122.68016052 C-11.97943832 109.51149876 -11.73368422 96.34328666 -11.56787109 83.171875 C-11.55113342 81.88726379 -11.53439575 80.60265259 -11.51715088 79.27911377 C-11.40783002 70.70081822 -11.33031375 62.12277293 -11.28277588 53.54391479 C-11.26661647 50.73527061 -11.24150778 47.92693346 -11.20843506 45.11843872 C-11.16330408 41.2221828 -11.15108091 37.32620283 -11.14208984 33.4296875 C-11.12463211 32.26147964 -11.10717438 31.09327179 -11.08918762 29.8896637 C-11.04704361 23.65668389 -11.04704361 23.65668389 -13.44873047 18.03979492 C-14.49770508 17.11517456 -14.49770508 17.11517456 -15.56787109 16.171875 C-16.33744141 15.46417969 -17.10701172 14.75648438 -17.89990234 14.02734375 C-25.56682176 8.69529877 -35.32119918 6.40623765 -44.56787109 6.171875 C-44.56787109 4.521875 -44.56787109 2.871875 -44.56787109 1.171875 C-38.93030066 1.02768573 -33.29268755 0.88534302 -27.6550293 0.74462891 C-25.74160538 0.69662012 -23.82819354 0.64812778 -21.91479492 0.59912109 C-17.37530346 0.48299732 -12.83594367 0.37342827 -8.29589844 0.28125 C-5.52535013 0.22436354 -2.76866177 0.1333747 0 0 Z " fill="#B9AD9D" transform="translate(221.56787109375,138.828125)"/>
<path d="M0 0 C1.06677979 0.00757324 2.13355957 0.01514648 3.23266602 0.02294922 C15.14712878 0.27255261 23.77401283 3.23121036 33.25 10.4375 C34.301875 11.18 35.35375 11.9225 36.4375 12.6875 C43.76865232 19.85573783 46.68015812 28.71163689 49.25 38.4375 C49.4250708 39.00259277 49.6001416 39.56768555 49.78051758 40.14990234 C50.89032719 45.55755503 50.55802584 51.30710582 50.60009766 56.81396484 C50.61647542 58.37499082 50.64351732 59.93594772 50.68212891 61.49658203 C51.00681075 74.72948467 49.94874022 89.36034899 40.828125 99.83984375 C40.30734375 100.36707031 39.7865625 100.89429687 39.25 101.4375 C38.49976563 102.24380859 38.49976563 102.24380859 37.734375 103.06640625 C26.16004273 114.27552901 9.06980457 114.77899774 -6.0625 114.625 C-7.89651367 114.6240332 -7.89651367 114.6240332 -9.76757812 114.62304688 C-25.64205786 114.54544214 -25.64205786 114.54544214 -27.75 112.4375 C-27.86661422 109.50237628 -27.91802958 106.59048072 -27.92700195 103.65429688 C-27.93357315 102.73226471 -27.94014435 101.81023254 -27.94691467 100.86026001 C-27.9667101 97.79225593 -27.97832769 94.72430107 -27.98828125 91.65625 C-27.99235678 90.60927444 -27.9964323 89.56229889 -28.00063133 88.4835968 C-28.02152447 82.93600662 -28.03580881 77.38844138 -28.04516602 71.84082031 C-28.05620215 66.11883933 -28.09056054 60.39725029 -28.13033772 54.67540741 C-28.15654073 50.27090757 -28.16486143 45.86650025 -28.16844749 41.46192932 C-28.17330849 39.35369741 -28.18490851 37.24546951 -28.20348549 35.13731384 C-28.22794165 32.17651876 -28.22689926 29.21672542 -28.2199707 26.25585938 C-28.23278076 25.392117 -28.24559082 24.52837463 -28.25878906 23.63845825 C-28.19869842 16.55368849 -26.21532756 10.78330168 -22 5.0625 C-15.19181764 0.1454794 -8.10702764 -0.07989718 0 0 Z " fill="#FEFEFE" transform="translate(123.75,23.5625)"/>
<path d="M0 0 C3.1742846 2.44468917 5.96191334 4.8904089 8.5625 7.9375 C9.12066406 8.58589844 9.67882812 9.23429688 10.25390625 9.90234375 C10.83011719 10.59457031 11.40632812 11.28679687 12 12 C12.93042114 13.07967041 12.93042114 13.07967041 13.87963867 14.18115234 C16.2581764 17.3432245 17.97983642 20.64408109 19.671875 24.19921875 C19.99915588 24.87547806 20.32643677 25.55173737 20.66363525 26.24848938 C21.34897615 27.66816949 22.03120285 29.08935679 22.71044922 30.51196289 C23.75349533 32.69481492 24.80759839 34.87206395 25.86328125 37.04882812 C26.52930174 38.43197602 27.19468905 39.81542903 27.859375 41.19921875 C28.33271271 42.17733772 28.33271271 42.17733772 28.81561279 43.17521667 C31 47.76860684 31 47.76860684 31 50 C28.31139069 50.10887507 25.62726842 50.18770594 22.9375 50.25 C22.18533203 50.28351563 21.43316406 50.31703125 20.65820312 50.3515625 C12.84795781 50.48680484 7.77261366 47.2478306 2 42 C2 41.34 2 40.68 2 40 C1.01 39.67 0.02 39.34 -1 39 C-1.20638953 10.64207904 -1.20638953 10.64207904 0 0 Z " fill="#B9AD9D" transform="translate(229,230)"/>
<path d="M0 0 C2.39652528 -0.08139142 4.79025436 -0.14067009 7.1875 -0.1875 C7.86103516 -0.21263672 8.53457031 -0.23777344 9.22851562 -0.26367188 C13.71415591 -0.32931539 16.40396893 0.31144193 20 3 C21 4 21 4 21.3125 6.8125 C21 10 21 10 19.125 12.3125 C17 14 17 14 15 15 C15.3609375 15.48210937 15.721875 15.96421875 16.09375 16.4609375 C16.5578125 17.09257812 17.021875 17.72421875 17.5 18.375 C17.9640625 19.00148438 18.428125 19.62796875 18.90625 20.2734375 C20 22 20 22 20 24 C21.65 24 23.3 24 25 24 C24.67 24.66 24.34 25.32 24 26 C17.89353574 25.88026541 17.89353574 25.88026541 15.421875 23.4453125 C12 18.70581897 12 18.70581897 12 16 C10.35 15.67 8.7 15.34 7 15 C7 18.3 7 21.6 7 25 C7.99 25.33 8.98 25.66 10 26 C6.7 26 3.4 26 0 26 C0.99 25.67 1.98 25.34 3 25 C3 17.08 3 9.16 3 1 C2.01 0.67 1.02 0.34 0 0 Z " fill="#84756F" transform="translate(16,376)"/>
<path d="M0 0 C2.97 0 5.94 0 9 0 C8.01 0.495 8.01 0.495 7 1 C7.33 3.97 7.66 6.94 8 10 C9.17561146 8.90536178 10.3402489 7.79892814 11.5 6.6875 C12.47453125 5.76517578 12.47453125 5.76517578 13.46875 4.82421875 C15.3214614 3.01398471 15.3214614 3.01398471 15 0 C17.31 0 19.62 0 22 0 C18.66666667 3.33333333 15.33333333 6.66666667 12 10 C13.33397624 13.69964839 14.9575482 16.66386156 17.3125 19.8125 C17.88613281 20.60269531 18.45976562 21.39289063 19.05078125 22.20703125 C21.17191954 24.56416052 21.17191954 24.56416052 26 24 C27.32 20.7 28.64 17.4 30 14 C31.28485596 19.13942384 30.22194431 20.37835584 28 25 C28.66 25.33 29.32 25.66 30 26 C25.05 26 20.1 26 15 26 C15 25.01 15 24.02 15 23 C13.46146046 20.43774157 13.46146046 20.43774157 11.5 17.8125 C10.345 16.224375 9.19 14.63625 8 13 C7.67 16.96 7.34 20.92 7 25 C7.66 25.33 8.32 25.66 9 26 C6.03 26 3.06 26 0 26 C0.99 25.67 1.98 25.34 3 25 C3 17.08 3 9.16 3 1 C2.01 0.67 1.02 0.34 0 0 Z " fill="#80818B" transform="translate(117,409)"/>
<path d="M0 0 C2.64 0 5.28 0 8 0 C7.67 0.66 7.34 1.32 7 2 C8.07644681 4.72191454 9.20704447 7.3490751 10.4375 10 C14 17.76285714 14 17.76285714 14 20 C14.66 20 15.32 20 16 20 C18.29141422 10.34906801 18.29141422 10.34906801 16 1 C15.01 0.67 14.02 0.34 13 0 C17.95 0 22.9 0 28 0 C26.68 0.33 25.36 0.66 24 1 C21.96387747 8.04811643 24.71288396 12.71012052 28 19 C28.66 19 29.32 19 30 19 C29.67 20.98 29.34 22.96 29 25 C28.01 25.33 27.02 25.66 26 26 C25.65066406 25.14535156 25.30132812 24.29070312 24.94140625 23.41015625 C24.48636719 22.30542969 24.03132813 21.20070313 23.5625 20.0625 C23.11003906 18.96035156 22.65757812 17.85820312 22.19140625 16.72265625 C21.25575392 14.13431084 21.25575392 14.13431084 20 13 C19.49339844 14.28197266 19.49339844 14.28197266 18.9765625 15.58984375 C18.53054687 16.69457031 18.08453125 17.79929687 17.625 18.9375 C17.18414062 20.03964844 16.74328125 21.14179688 16.2890625 22.27734375 C15 25 15 25 13 26 C12.67725098 25.28344238 12.35450195 24.56688477 12.02197266 23.82861328 C10.56098057 20.59194581 9.09308456 17.35845625 7.625 14.125 C6.86316406 12.43310547 6.86316406 12.43310547 6.0859375 10.70703125 C5.59609375 9.63066406 5.10625 8.55429687 4.6015625 7.4453125 C4.15119629 6.45031738 3.70083008 5.45532227 3.23681641 4.43017578 C2.10753887 1.90123337 2.10753887 1.90123337 0 0 Z " fill="#877E7E" transform="translate(167,409)"/>
<path d="M0 0 C0.66 0 1.32 0 2 0 C3.50548369 3.78951244 5.00345314 7.58195031 6.5 11.375 C6.92925781 12.45523437 7.35851562 13.53546875 7.80078125 14.6484375 C8.40986328 16.1953125 8.40986328 16.1953125 9.03125 17.7734375 C9.40830078 18.72653809 9.78535156 19.67963867 10.17382812 20.66162109 C11 23 11 23 11 25 C11.99 25.33 12.98 25.66 14 26 C11.03 26 8.06 26 5 26 C5.66 25.67 6.32 25.34 7 25 C6.7834375 24.45730469 6.566875 23.91460937 6.34375 23.35546875 C5.92609375 22.28232422 5.92609375 22.28232422 5.5 21.1875 C5.2215625 20.47980469 4.943125 19.77210938 4.65625 19.04296875 C4 17 4 17 4 14 C1.36 14 -1.28 14 -4 14 C-4.20496094 14.62648438 -4.40992187 15.25296875 -4.62109375 15.8984375 C-4.89050781 16.71570313 -5.15992187 17.53296875 -5.4375 18.375 C-5.70433594 19.18710937 -5.97117187 19.99921875 -6.24609375 20.8359375 C-7 23 -7 23 -8 25 C-7.34 25.33 -6.68 25.66 -6 26 C-8.31 26 -10.62 26 -13 26 C-12.07513794 25.16311646 -12.07513794 25.16311646 -11.1315918 24.30932617 C-8.90363769 21.8956029 -8.00115336 20.11520641 -6.89453125 17.05078125 C-6.55099609 16.12072266 -6.20746094 15.19066406 -5.85351562 14.23242188 C-5.50998047 13.26884766 -5.16644531 12.30527344 -4.8125 11.3125 C-4.11279049 9.39115611 -3.4110766 7.47054058 -2.70703125 5.55078125 C-2.4025708 4.70169189 -2.09811035 3.85260254 -1.78442383 2.9777832 C-1 1 -1 1 0 0 Z " fill="#82797A" transform="translate(101,409)"/>
<path d="M0 0 C3 1 3 1 4.13500977 3.19311523 C4.48362061 4.13872314 4.83223145 5.08433105 5.19140625 6.05859375 C5.57876953 7.08404297 5.96613281 8.10949219 6.36523438 9.16601562 C6.76033203 10.24560547 7.15542969 11.32519531 7.5625 12.4375 C8.35078513 14.56294085 9.14354282 16.68672989 9.94140625 18.80859375 C10.28888916 19.75532959 10.63637207 20.70206543 10.99438477 21.67749023 C11.88904146 24.13432846 11.88904146 24.13432846 14 26 C11.03 26 8.06 26 5 26 C5.66 25.34 6.32 24.68 7 24 C5.515 19.05 5.515 19.05 4 14 C1.36 14 -1.28 14 -4 14 C-4.8441938 17.97977076 -5.44687265 21.97007218 -6 26 C-7.98 26 -9.96 26 -12 26 C-11.01 25.67 -10.02 25.34 -9 25 C-8.1794208 23.17669193 -8.1794208 23.17669193 -7.6875 20.875 C-6.38345519 16.0514364 -4.69132388 11.49617253 -2.8125 6.875 C-2.40100708 5.86155518 -2.40100708 5.86155518 -1.98120117 4.82763672 C-1.32423362 3.21701996 -0.6626195 1.60829976 0 0 Z " fill="#807879" transform="translate(220,409)"/>
<path d="M0 0 C2.31 0 4.62 0 7 0 C9.64 6.27 12.28 12.54 15 19 C16.98 14.05 18.96 9.1 21 4 C22.00829561 8.03318243 22.10779448 8.54853092 20.63671875 12.07421875 C20.32669922 12.82380859 20.01667969 13.57339844 19.69726562 14.34570312 C19.36404297 15.11849609 19.03082031 15.89128906 18.6875 16.6875 C18.36587891 17.47189453 18.04425781 18.25628906 17.71289062 19.06445312 C15.27170567 24.86414717 15.27170567 24.86414717 13 26 C10.03 19.07 7.06 12.14 4 5 C3.34 11.6 2.68 18.2 2 25 C2.99 25.33 3.98 25.66 5 26 C2.69 26 0.38 26 -2 26 C-1.34 25.34 -0.68 24.68 0 24 C0.46380081 21.58063972 0.46380081 21.58063972 0.6328125 18.7734375 C0.75849609 17.2265625 0.75849609 17.2265625 0.88671875 15.6484375 C0.96535156 14.56820313 1.04398438 13.48796875 1.125 12.375 C1.21136719 11.28703125 1.29773438 10.1990625 1.38671875 9.078125 C1.59925957 6.38594123 1.80332432 3.69338172 2 1 C1.34 0.67 0.68 0.34 0 0 Z " fill="#857A7C" transform="translate(18,409)"/>
<path d="M0 0 C0.99 0 1.98 0 3 0 C4.50548369 3.78951244 6.00345314 7.58195031 7.5 11.375 C7.92925781 12.45523437 8.35851562 13.53546875 8.80078125 14.6484375 C9.20683594 15.6796875 9.61289063 16.7109375 10.03125 17.7734375 C10.40830078 18.72653809 10.78535156 19.67963867 11.17382812 20.66162109 C12 23 12 23 12 25 C12.99 25.33 13.98 25.66 15 26 C12.03 26 9.06 26 6 26 C6.66 25.67 7.32 25.34 8 25 C6.68 21.7 5.36 18.4 4 15 C1.36 14.67 -1.28 14.34 -4 14 C-3.36843005 8.94744036 -1.86540627 4.70406799 0 0 Z " fill="#7D7372" transform="translate(152,409)"/>
<path d="M0 0 C2.97 0 5.94 0 9 0 C8.67 0.66 8.34 1.32 8 2 C8.88236297 4.22171783 8.88236297 4.22171783 10.25 6.5625 C10.68828125 7.36816406 11.1265625 8.17382812 11.578125 9.00390625 C12.91828714 11.30010691 12.91828714 11.30010691 16 12 C16.28875 11.0925 16.5775 10.185 16.875 9.25 C18 6 18 6 19.1875 3.75 C19.455625 3.1725 19.72375 2.595 20 2 C19.67 1.34 19.34 0.68 19 0 C21.31 0 23.62 0 26 0 C24.9171875 0.8971875 24.9171875 0.8971875 23.8125 1.8125 C17.6346254 8.02557617 15.41784554 16.50380738 15 25 C15.99 25.33 16.98 25.66 18 26 C14.7 26 11.4 26 8 26 C8.99 25.67 9.98 25.34 11 25 C11.12576014 15.87340705 8.39271074 9.33549954 3 2 C2.01 1.34 1.02 0.68 0 0 Z " fill="#7D6F63" transform="translate(40,376)"/>
<path d="M0 0 C6.6 0 13.2 0 20 0 C19.67 1.32 19.34 2.64 19 4 C18.67 3.34 18.34 2.68 18 2 C15.1840151 1.53101037 15.1840151 1.53101037 11.9375 1.375 C10.28041016 1.26285156 10.28041016 1.26285156 8.58984375 1.1484375 C7.73519531 1.09945313 6.88054687 1.05046875 6 1 C6 3.97 6 6.94 6 10 C9.43230448 9.73606499 9.43230448 9.73606499 13 9 C13.66 8.01 14.32 7.02 15 6 C15 8.64 15 11.28 15 14 C14.67 13.01 14.34 12.02 14 11 C11.36 11 8.72 11 6 11 C6 15.62 6 20.24 6 25 C13.65109083 25.29135142 13.65109083 25.29135142 19.88671875 21.953125 C20.43779297 20.98632812 20.43779297 20.98632812 21 20 C21 21.98 21 23.96 21 26 C14.07 26 7.14 26 0 26 C0.99 25.67 1.98 25.34 3 25 C3 17.08 3 9.16 3 1 C2.01 0.67 1.02 0.34 0 0 Z " fill="#7C6A61" transform="translate(118,376)"/>
<path d="M0 0 C2.97 0 5.94 0 9 0 C8.01 0.495 8.01 0.495 7 1 C8.98 4.63 10.96 8.26 13 12 C14.65 10.35 16.3 8.7 18 7 C16.125 12.75 16.125 12.75 15 15 C14.77377919 16.70363822 14.59111527 18.41328701 14.4375 20.125 C14.35371094 21.03507812 14.26992187 21.94515625 14.18359375 22.8828125 C14.12300781 23.58148438 14.06242187 24.28015625 14 25 C14.99 25.33 15.98 25.66 17 26 C13.7 26 10.4 26 7 26 C7.99 25.67 8.98 25.34 10 25 C10.12720661 15.76843492 7.22546863 9.51839944 2 2 C1.34 1.34 0.68 0.68 0 0 Z " fill="#827672" transform="translate(64,409)"/>
<path d="M0 0 C6 0 6 0 8.375 1.0625 C10 3 10 3 10.5 6.5 C10 10 10 10 8.375 11.9375 C6 13 6 13 0 13 C0 8.71 0 4.42 0 0 Z " fill="#F9FCF8" transform="translate(23,377)"/>
<path d="M0 0 C3.3 0 6.6 0 10 0 C9.01 0.33 8.02 0.66 7 1 C7 8.92 7 16.84 7 25 C7.99 25.33 8.98 25.66 10 26 C6.7 26 3.4 26 0 26 C0.99 25.67 1.98 25.34 3 25 C3 17.08 3 9.16 3 1 C2.01 0.67 1.02 0.34 0 0 Z " fill="#87766F" transform="translate(143,376)"/>
<path d="M0 0 C3.3 0 6.6 0 10 0 C9.01 0.33 8.02 0.66 7 1 C7.08109748 4.08439243 7.19391689 7.16683912 7.3125 10.25 C7.33505859 11.12269531 7.35761719 11.99539063 7.38085938 12.89453125 C7.57946015 17.92105523 7.57946015 17.92105523 9.34375 22.5625 C11.7125841 24.61846922 13.93849837 24.72786652 17 25 C17 25.33 17 25.66 17 26 C12.02666392 26.29254918 8.9563029 26.16504232 5 23 C3.24384901 20.12823941 2.75690039 18.01697261 2.8046875 14.671875 C2.81113281 13.87265625 2.81757812 13.0734375 2.82421875 12.25 C2.84097656 11.425 2.85773438 10.6 2.875 9.75 C2.88402344 8.90953125 2.89304687 8.0690625 2.90234375 7.203125 C2.92584183 5.13529396 2.96171092 3.06761005 3 1 C2.01 0.67 1.02 0.34 0 0 Z " fill="#7E7673" transform="translate(67,376)"/>
<path d="M0 0 C1.134375 0.020625 2.26875 0.04125 3.4375 0.0625 C2.4475 0.3925 1.4575 0.7225 0.4375 1.0625 C0.5096875 1.70574219 0.581875 2.34898437 0.65625 3.01171875 C1.41327262 10.38217507 1.54345877 17.65715929 1.4375 25.0625 C2.4275 25.3925 3.4175 25.7225 4.4375 26.0625 C1.4675 26.0625 -1.5025 26.0625 -4.5625 26.0625 C-3.5725 25.7325 -2.5825 25.4025 -1.5625 25.0625 C-1.65861572 24.34070557 -1.75473145 23.61891113 -1.85375977 22.87524414 C-2.28321672 19.62588742 -2.70421852 16.37549103 -3.125 13.125 C-3.27646484 11.98869141 -3.42792969 10.85238281 -3.58398438 9.68164062 C-3.72255859 8.60205078 -3.86113281 7.52246094 -4.00390625 6.41015625 C-4.13482666 5.40992432 -4.26574707 4.40969238 -4.40063477 3.37915039 C-4.45405029 2.61465576 -4.50746582 1.85016113 -4.5625 1.0625 C-3.5625 0.0625 -3.5625 0.0625 0 0 Z " fill="#79706D" transform="translate(44.5625,408.9375)"/>
<path d="M0 0 C2.64 0 5.28 0 8 0 C7.67 0.66 7.34 1.32 7 2 C7.59673476 3.92241977 7.59673476 3.92241977 8.6171875 6.02734375 C8.97683594 6.81947266 9.33648437 7.61160156 9.70703125 8.42773438 C10.09246094 9.25595703 10.47789062 10.08417969 10.875 10.9375 C11.62347638 12.57111994 12.37091538 14.20521568 13.1171875 15.83984375 C13.45347168 16.56550537 13.78975586 17.29116699 14.13623047 18.03881836 C15 20 15 20 16 23 C15.01 23.99 14.02 24.98 13 26 C12.67725098 25.28344238 12.35450195 24.56688477 12.02197266 23.82861328 C10.56098057 20.59194581 9.09308456 17.35845625 7.625 14.125 C6.86316406 12.43310547 6.86316406 12.43310547 6.0859375 10.70703125 C5.59609375 9.63066406 5.10625 8.55429687 4.6015625 7.4453125 C4.15119629 6.45031738 3.70083008 5.45532227 3.23681641 4.43017578 C2.10753887 1.90123337 2.10753887 1.90123337 0 0 Z " fill="#786F6D" transform="translate(167,409)"/>
<path d="M0 0 C2.97 0 5.94 0 9 0 C8.01 0.33 7.02 0.66 6 1 C6 8.92 6 16.84 6 25 C6.99 25.33 7.98 25.66 9 26 C6.03 26 3.06 26 0 26 C0.99 25.67 1.98 25.34 3 25 C3 17.08 3 9.16 3 1 C2.01 0.67 1.02 0.34 0 0 Z " fill="#79665B" transform="translate(117,409)"/>
<path d="M0 0 C2.97 0 5.94 0 9 0 C8.01 0.33 7.02 0.66 6 1 C6 8.92 6 16.84 6 25 C6.99 25.33 7.98 25.66 9 26 C6.03 26 3.06 26 0 26 C0.99 25.67 1.98 25.34 3 25 C3 17.08 3 9.16 3 1 C2.01 0.67 1.02 0.34 0 0 Z " fill="#72665B" transform="translate(53,409)"/>
<path d="M0 0 C0.66 0.33 1.32 0.66 2 1 C1.67 2.65 1.34 4.3 1 6 C1.69867188 6.40992188 2.39734375 6.81984375 3.1171875 7.2421875 C4.02726562 7.78101563 4.93734375 8.31984375 5.875 8.875 C7.23238281 9.67550781 7.23238281 9.67550781 8.6171875 10.4921875 C11 12 11 12 13 14 C13.56949153 20.26440678 13.56949153 20.26440678 11.5 22.9375 C11.005 23.288125 10.51 23.63875 10 24 C9.34 23.67 8.68 23.34 8 23 C8.66 22.34 9.32 21.68 10 21 C10.06369392 18.50053232 10.06369392 18.50053232 9 16 C6.75972661 14.13925874 6.75972661 14.13925874 4 12.75 C3.0925 12.24984375 2.185 11.7496875 1.25 11.234375 C0.5075 10.82703125 -0.235 10.4196875 -1 10 C-2 9 -2 9 -2.1875 5.5625 C-2 2 -2 2 0 0 Z " fill="#796D67" transform="translate(100,377)"/>
<path d="M0 0 C2.91517292 1.07401108 4.77810176 1.77810176 7 4 C7.375 6.875 7.375 6.875 7 10 C5 12.375 5 12.375 3 14 C2.01 13.67 1.02 13.34 0 13 C0.66 12.34 1.32 11.68 2 11 C2.54814031 6.20165439 2.54814031 6.20165439 0.5 2.0625 C0.005 1.711875 -0.49 1.36125 -1 1 C-0.67 0.67 -0.34 0.34 0 0 Z " fill="#787072" transform="translate(30,376)"/>
<path d="M0 0 C2.31 0 4.62 0 7 0 C6.278125 0.598125 5.55625 1.19625 4.8125 1.8125 C-1.3653746 8.02557617 -3.58215446 16.50380738 -4 25 C-4.33 25 -4.66 25 -5 25 C-4.98259766 23.84371094 -4.98259766 23.84371094 -4.96484375 22.6640625 C-4.95582031 21.66117187 -4.94679687 20.65828125 -4.9375 19.625 C-4.92589844 18.62726563 -4.91429687 17.62953125 -4.90234375 16.6015625 C-4.81993398 14.01567547 -4.81993398 14.01567547 -6 12 C-5.01 12 -4.02 12 -3 12 C-2.71125 11.0925 -2.4225 10.185 -2.125 9.25 C-1 6 -1 6 0.1875 3.75 C0.5896875 2.88375 0.5896875 2.88375 1 2 C0.67 1.34 0.34 0.68 0 0 Z " fill="#9193A6" transform="translate(59,376)"/>
<path d="M0 0 C2.31 0 4.62 0 7 0 C3.50640535 3.59634744 -0.11098131 6.83451967 -4 10 C-3.4213888 6.64405503 -2.35999139 5.35999139 0 3 C0 2.01 0 1.02 0 0 Z " fill="#B7BBC5" transform="translate(132,409)"/>
<path d="M0 0 C2.89932357 2.39509338 3.50168276 4.31245243 4 8 C2.02 8 0.04 8 -2 8 C-1.47731534 5.23723823 -0.89130413 2.6739124 0 0 Z " fill="#F1F4EF" transform="translate(219,414)"/>
<path d="M0 0 C2.15377564 2.62198774 3.40072174 4.64404172 4 8 C1.69 8 -0.62 8 -3 8 C-2.01 5.36 -1.02 2.72 0 0 Z " fill="#F5F6EF" transform="translate(152,414)"/>
<path d="M0 0 C0.66 0.33 1.32 0.66 2 1 C2.73075648 3.3140622 3.40138258 5.64828869 4 8 C2.02 8 0.04 8 -2 8 C-1.47731534 5.23723823 -0.89130413 2.6739124 0 0 Z " fill="#F9F5EB" transform="translate(100,414)"/>
<path d="M0 0 C2.31 0 4.62 0 7 0 C5.35 1.98 3.7 3.96 2 6 C1.67 5.01 1.34 4.02 1 3 C1.33 2.34 1.66 1.68 2 1 C1.34 0.67 0.68 0.34 0 0 Z " fill="#A3A1A5" transform="translate(201,409)"/>
<path d="M0 0 C0.53625 0.639375 1.0725 1.27875 1.625 1.9375 C4.44367193 4.38529404 6.33860732 4.66714612 10 5 C10 5.33 10 5.66 10 6 C2.57142857 6.28571429 2.57142857 6.28571429 -1 4 C-0.67 2.68 -0.34 1.36 0 0 Z " fill="#7D7C80" transform="translate(74,396)"/>
</svg>
